{"accessors":[{"bufferView":0,"componentType":5125,"count":216906,"max":[173060],"min":[0],"type":"SCALAR"},{"bufferView":1,"componentType":5126,"count":173061,"max":[30.0,83.1500015258789,34.0],"min":[-30.0,-9.850000381469727,-36.29999923706055],"type":"VEC3"},{"bufferView":2,"componentType":5126,"count":173061,"max":[1.0,1.0,1.0],"min":[-1.0,-1.0,-1.0],"type":"VEC3"},{"bufferView":3,"componentType":5126,"count":173061,"max":[50.00020217895508,0.0,0.0],"min":[-49.99272155761719,0.0,0.0],"type":"VEC3"},{"bufferView":4,"componentType":5126,"count":173061,"max":[1.8663933277130127,1.809013843536377,1.8090121746063232],"min":[-0.9956735968589783,-1.809013843536377,-1.809013843536377],"type":"VEC3"},{"bufferView":5,"componentType":5123,"count":432,"max":[408],"min":[0],"type":"SCALAR"},{"bufferView":6,"componentType":5126,"count":409,"max":[-18.974288940429688,61.80000686645508,-36.149993896484375],"min":[-20.149986267089844,7.800006866455078,-39.34388732910156],"type":"VEC3"},{"bufferView":7,"componentType":5126,"count":409,"max":[1.0,1.0,1.0],"min":[-0.9805918335914612,-1.0,-0.9898209571838379],"type":"VEC3"},{"bufferView":8,"componentType":5126,"count":409,"max":[-49.992713928222656,0.0,0.0],"min":[-49.99272155761719,0.0,0.0],"type":"VEC3"},{"bufferView":9,"componentType":5126,"count":409,"max":[7.748603820800781e-05,3.986060619354248e-05,7.361173629760742e-05],"min":[-0.0004687309265136719,-3.701448440551758e-05,-0.0007188916206359863],"type":"VEC3"},{"bufferView":10,"componentType":5123,"count":1002,"max":[820],"min":[0],"type":"SCALAR"},{"bufferView":11,"componentType":5126,"count":821,"max":[30.0,115.28053283691406,34.0],"min":[-32.0,61.150001525878906,-36.5],"type":"VEC3"},{"bufferView":12,"componentType":5126,"count":821,"max":[1.0,1.0,1.0],"min":[-1.0,-1.0,-1.0],"type":"VEC3"},{"bufferView":13,"componentType":5126,"count":821,"max":[50.00020217895508,0.0,0.0],"min":[-49.99272155761719,0.0,0.0],"type":"VEC3"},{"bufferView":14,"componentType":5126,"count":821,"max":[1.5109777450561523e-05,0.0806235671043396,0.05429267883300781],"min":[-0.20725639164447784,-0.008384883403778076,-0.036433011293411255],"type":"VEC3"}],"asset":{"generator":"Soft8Soft Verge3D for Blender add-on","version":"2.0"},"bufferViews":[{"buffer":0,"byteLength":867624,"byteOffset":0,"target":34963},{"buffer":0,"byteLength":2076732,"byteOffset":867624,"target":34962},{"buffer":0,"byteLength":2076732,"byteOffset":2944356,"target":34962},{"buffer":0,"byteLength":2076732,"byteOffset":5021088},{"buffer":0,"byteLength":2076732,"byteOffset":7097820},{"buffer":0,"byteLength":864,"byteOffset":9174552,"target":34963},{"buffer":0,"byteLength":4908,"byteOffset":9175416,"target":34962},{"buffer":0,"byteLength":4908,"byteOffset":9180324,"target":34962},{"buffer":0,"byteLength":4908,"byteOffset":9185232},{"buffer":0,"byteLength":4908,"byteOffset":9190140},{"buffer":0,"byteLength":2004,"byteOffset":9195048,"target":34963},{"buffer":0,"byteLength":9852,"byteOffset":9197052,"target":34962},{"buffer":0,"byteLength":9852,"byteOffset":9206904,"target":34962},{"buffer":0,"byteLength":9852,"byteOffset":9216756},{"buffer":0,"byteLength":9852,"byteOffset":9226608}],"buffers":[{"byteLength":9236460,"uri":"omarica60.bin"}],"cameras":[{"extensions":{"S8S_v3d_camera_data":{"controls":"ORBIT","enablePan":true,"moveSpeed":1.0,"orbitMaxDistance":5.0,"orbitMaxPolarAngle":3.1415927410125732,"orbitMinDistance":2.0,"orbitMinPolarAngle":0.0,"orbitTarget":[0.0,0.38999998569488525,-0.0],"rotateSpeed":0.5,"viewportFitInitialAspect":1.7777777777777777,"viewportFitType":"AUTO"}},"name":"Camera","perspective":{"aspectRatio":1.7777777777777777,"yfov":0.5033799372418416,"zfar":100.0,"znear":0.10000000149011612},"type":"perspective"}],"extensions":{"S8S_v3d_data":{"lights":[{"color":[1.0,1.0,1.0],"constantAttenuation":1.0,"decay":2,"distance":10.00000011175871,"intensity":100.0,"linearAttenuation":0.0,"name":"Lamp","profile":"blender","quadraticAttenuation":0.0999999988824129,"shadow":{"bias":-0.0018,"cameraFar":10.00000011175871,"cameraFov":0,"cameraNear":1.0007989406585693,"enabled":true,"expBias":2.5,"mapSize":512,"radius":1.0,"slopeScaledBias":2.5},"type":"point"}]}},"extensionsUsed":["S8S_v3d_material_data","S8S_v3d_camera_data","S8S_v3d_data","S8S_v3d_mesh_data","S8S_v3d_node_data","S8S_v3d_scene_data"],"materials":[{"extensions":{"S8S_v3d_material_data":{"nodeGraph":{"edges":[{"fromNode":0,"fromOutput":0,"toInput":0,"toNode":1}],"nodes":[{"inputs":[[0.024102509021759033,0.022334212437272072,0.027210107073187828,1.0],0.0,[1.0,0.20000000298023224,0.10000000149011612],[0.800000011920929,0.800000011920929,0.800000011920929,1.0],0.0,0.5,0.0,0.5,0.0,0.0,0.0,0.5,0.0,0.029999999329447746,1.4500000476837158,0.0,0.0,[0.0,0.0,0.0,1.0],1.0,[0.0,0.0,0.0],[0.0,0.0,0.0],[0.0,0.0,0.0]],"is_active_output":false,"name":"Principled BSDF","outputs":[[0,0,0,0]],"type":"BSDF_PRINCIPLED_BL"},{"inputs":[[0,0,0,0],[0,0,0,0],[0.0,0.0,0.0]],"is_active_output":true,"name":"Material Output","outputs":[],"type":"OUTPUT_MATERIAL_BL"}]},"useCastShadows":true}},"name":"Antracid"},{"extensions":{"S8S_v3d_material_data":{"nodeGraph":{"edges":[{"fromNode":0,"fromOutput":0,"toInput":0,"toNode":1}],"nodes":[{"inputs":[[0.800000011920929,0.800000011920929,0.800000011920929,1.0],0.0,[1.0,0.20000000298023224,0.10000000149011612],[0.800000011920929,0.800000011920929,0.800000011920929,1.0],0.6909090876579285,0.5,0.20000000298023224,0.38787877559661865,0.0,0.0,0.26363635063171387,0.5,0.0,0.029999999329447746,1.4500000476837158,0.0,0.0,[0.0,0.0,0.0,1.0],1.0,[0.0,0.0,0.0],[0.0,0.0,0.0],[0.0,0.0,0.0]],"is_active_output":false,"name":"Principled BSDF","outputs":[[0,0,0,0]],"type":"BSDF_PRINCIPLED_BL"},{"inputs":[[0,0,0,0],[0,0,0,0],[0.0,0.0,0.0]],"is_active_output":true,"name":"Material Output","outputs":[],"type":"OUTPUT_MATERIAL_BL"}]},"useCastShadows":true}},"name":"Krom"},{"extensions":{"S8S_v3d_material_data":{"nodeGraph":{"edges":[{"fromNode":0,"fromOutput":0,"toInput":0,"toNode":1}],"nodes":[{"inputs":[[0.01816922426223755,0.007389396894723177,0.04696270450949669,1.0],0.0,[1.0,0.20000000298023224,0.10000000149011612],[0.800000011920929,0.800000011920929,0.800000011920929,1.0],0.0,0.5,0.0,0.5,0.0,0.0,0.0,0.5,0.0,0.029999999329447746,1.4500000476837158,0.0,0.0,[0.0,0.0,0.0,1.0],1.0,[0.0,0.0,0.0],[0.0,0.0,0.0],[0.0,0.0,0.0]],"is_active_output":false,"name":"Principled BSDF","outputs":[[0,0,0,0]],"type":"BSDF_PRINCIPLED_BL"},{"inputs":[[0,0,0,0],[0,0,0,0],[0.0,0.0,0.0]],"is_active_output":true,"name":"Material Output","outputs":[],"type":"OUTPUT_MATERIAL_BL"}]},"useCastShadows":true}},"name":"Lijak"},{"extensions":{"S8S_v3d_material_data":{"nodeGraph":{"edges":[{"fromNode":0,"fromOutput":0,"toInput":0,"toNode":1}],"nodes":[{"inputs":[[0.05087608844041824,0.05087608844041824,0.05087608844041824,1.0],1.2999999523162842],"is_active_output":false,"name":"Background","outputs":[[0,0,0,0]],"type":"BACKGROUND_BL"},{"inputs":[[0,0,0,0],[0,0,0,0]],"is_active_output":true,"name":"World Output","outputs":[],"type":"OUTPUT_WORLD_BL"},{"inputs":[],"is_active_output":false,"name":"Light Path","outputs":[0.0,0.0,0.0,0.0,0.0,0.0,0.0,0.0,0.0,0.0,0.0,0.0,0.0],"type":"LIGHT_PATH_BL"}]},"useCastShadows":true}},"name":"Verge3D_Environment_World"}],"meshes":[{"extensions":{"S8S_v3d_mesh_data":{"colorLayers":{},"uvLayers":{}}},"extras":{"targetNames":["Key 1"]},"name":"FL-P-004 Omarica 60 - sestav","primitives":[{"attributes":{"NORMAL":2,"POSITION":1},"indices":0,"material":0,"mode":4,"targets":[{"NORMAL":4,"POSITION":3}]},{"attributes":{"NORMAL":7,"POSITION":6},"indices":5,"material":1,"mode":4,"targets":[{"NORMAL":9,"POSITION":8}]},{"attributes":{"NORMAL":12,"POSITION":11},"indices":10,"material":2,"mode":4,"targets":[{"NORMAL":14,"POSITION":13}]}],"weights":[0.0]}],"nodes":[{"extensions":{"S8S_v3d_node_data":{"frustumCulling":true,"groupNames":["Omarica"],"hidden":false,"renderOrder":0,"useShadows":true}},"mesh":0,"name":"FL-P-004 Omarica 60 - sestav","scale":[0.009999999776482582,0.009999999776482582,0.009999999776482582],"translation":[0.006548449397087097,0.10150096565485,1.3637550644318708e-08]},{"extensions":{"S8S_v3d_node_data":{"frustumCulling":true,"groupNames":["Collection 1"],"hidden":false,"light":0,"renderOrder":0}},"name":"Lamp","rotation":[-0.2841663062572479,0.7269423604011536,0.34203389286994934,0.5232754945755005],"scale":[0.9999999403953552,0.9999997615814209,0.9999998807907104],"translation":[1.0748765468597412,2.437908411026001,-0.9438950419425964]},{"camera":0,"extensions":{"S8S_v3d_node_data":{"frustumCulling":true,"groupNames":["Collection 1"],"hidden":false,"renderOrder":0}},"name":"Camera","rotation":[-0.05986088141798973,0.9312837719917297,0.17887330055236816,0.31165963411331177],"scale":[1.0000003576278687,1.0000001192092896,1.0],"translation":[1.9282382726669312,2.0102460384368896,-2.358172655105591]}],"scene":0,"scenes":[{"extensions":{"S8S_v3d_scene_data":{"aaMethod":"AUTO","iblEnvironmentMode":"PMREM","physicallyCorrectLights":true,"pmremMaxTileSize":256,"shadowMap":{"esmDistanceScale":1.0,"renderReverseSided":false,"renderSingleSided":true,"type":"PCFPOISSON"},"worldMaterial":3}},"extras":{"animFrameRate":24,"coordSystem":"Z_UP_RIGHT"},"name":"Scene","nodes":[1,2,0]}]}
